<svg xmlns="http://www.w3.org/2000/svg" width="370" height="80" viewBox="0 0 370 80" version="1.1"><path d="M 264.775 6.250 C 263.355 7.355, 261.897 11.775, 258.068 26.583 L 257.013 30.666 251.458 30.205 C 245.974 29.750, 245.848 29.801, 241.680 34.151 C 235.652 40.442, 229.091 58.119, 229.024 68.247 C 229.005 71.167, 229.798 72.877, 232.616 75.997 C 234.605 78.199, 236.821 80, 237.540 80 C 238.258 80, 240.309 78.770, 242.095 77.266 C 243.922 75.730, 245.504 75.011, 245.708 75.624 C 245.908 76.225, 246.671 77.535, 247.402 78.535 C 248.605 80.181, 249.054 80.222, 252.116 78.964 C 256.076 77.338, 265 69.327, 265 67.398 C 265 66.668, 264.054 65.564, 262.898 64.946 C 261.119 63.993, 260.334 64.256, 257.780 66.660 C 255.255 69.036, 254.856 69.173, 255.335 67.500 C 268.112 22.901, 272.149 7.830, 271.661 6.559 C 270.943 4.687, 267.011 4.511, 264.775 6.250 M 284.196 6.264 C 283.619 6.960, 279.109 23.047, 274.174 42.014 C 265.413 75.691, 265.246 76.545, 267.059 78.430 C 268.583 80.015, 269.342 80.165, 271.300 79.273 C 272.745 78.615, 274.239 78.538, 275.092 79.078 C 278.702 81.363, 285.500 79.385, 289.637 74.845 C 294.707 69.282, 301 51.285, 301 42.348 C 301 37.372, 300.650 36.450, 297.600 33.400 C 295.730 31.530, 293.435 30, 292.500 30 C 291.565 30, 289.220 31.580, 287.289 33.511 C 285.357 35.443, 283.977 36.455, 284.220 35.761 C 286.402 29.543, 291.209 7.986, 290.705 6.674 C 289.951 4.708, 285.709 4.441, 284.196 6.264 M 11.040 10.452 C 9.270 12.585, 10.189 15.453, 12.760 15.820 C 13.992 15.995, 15 16.396, 15 16.711 C 15 17.026, 11.560 30.707, 7.355 47.114 C 1.048 71.724, -0.068 77.213, 0.977 78.473 C 2.661 80.501, 5.322 80.406, 7.276 78.248 C 8.148 77.284, 10.381 70.421, 12.237 62.998 C 15.470 50.071, 15.727 49.487, 18.306 49.184 C 19.788 49.010, 20.999 49.235, 20.997 49.684 C 20.996 50.133, 21.725 56.125, 22.617 63 C 24.378 76.572, 25.746 80, 29.401 80 C 34.019 80, 34.232 78.356, 31.710 62.113 C 30.136 51.972, 29.722 47, 30.454 47 C 32.859 47, 39.019 40.656, 41.397 35.730 C 46.606 24.937, 45.582 15.154, 38.810 11.026 C 35.992 9.308, 33.771 9.007, 23.872 9.004 C 14.924 9.001, 11.967 9.335, 11.040 10.452 M 22.995 21.200 C 22.385 23.565, 21.012 28.768, 19.943 32.761 C 18.874 36.755, 18 40.300, 18 40.638 C 18 40.977, 20.336 41.030, 23.191 40.756 C 27.368 40.354, 28.912 39.663, 31.103 37.211 C 34.326 33.603, 36.714 23.939, 35.347 20.032 C 34.575 17.825, 33.796 17.461, 29.283 17.200 L 24.104 16.899 22.995 21.200 M 90.407 30.893 C 86.949 33.002, 81.077 39.869, 78.662 44.628 C 76.221 49.439, 73 61.975, 73 66.665 C 73 72.574, 74.435 75.685, 78.225 77.996 C 83.596 81.270, 86.437 80.646, 92.573 74.843 C 97.741 69.955, 97.938 69.590, 96.358 67.843 C 94.117 65.367, 93.338 65.496, 89.347 69 C 85.329 72.528, 83.479 72.763, 81.967 69.938 C 78.988 64.371, 87.088 41.367, 93.205 38.020 C 95.766 36.619, 96.072 36.695, 98.948 39.451 L 101.987 42.361 104.455 40.043 C 107.460 37.219, 106.712 35.236, 101.243 31.519 C 96.815 28.510, 94.532 28.378, 90.407 30.893 M 113.295 30.250 C 111.999 31.956, 102 69.161, 102 72.279 C 102 75.868, 105.097 79.250, 108.384 79.250 C 112.160 79.250, 117.171 74.233, 122.596 65.021 C 125.018 60.907, 126.986 57.757, 126.968 58.021 C 126.951 58.284, 125.648 62.775, 124.073 68 C 121.030 78.099, 121.256 80, 125.500 80 C 126.740 80, 128.283 79.364, 128.928 78.587 C 130.180 77.079, 141.992 34.717, 141.997 31.719 C 142.001 29.400, 139.459 28.470, 136.636 29.756 C 135.241 30.392, 130.351 37.772, 123.647 49.361 C 117.734 59.583, 112.469 68.210, 111.948 68.532 C 110.331 69.532, 110.841 67.135, 116.064 49.182 C 118.850 39.610, 120.889 31.153, 120.596 30.389 C 119.932 28.660, 114.581 28.558, 113.295 30.250 M 154.201 30.750 C 152.732 32.022, 150.615 38.564, 146.456 54.681 C 143.308 66.880, 141.004 77.567, 141.335 78.431 C 142.142 80.534, 146.310 80.425, 148.252 78.250 C 149.112 77.287, 151.262 70.875, 153.031 64 C 154.801 57.125, 156.415 51.315, 156.618 51.089 C 156.821 50.864, 157.825 51.437, 158.849 52.364 C 159.873 53.290, 161.338 53.856, 162.105 53.620 C 167.405 51.993, 167.195 52.278, 165.505 49.009 C 163.628 45.380, 164.141 44.160, 170.596 36.892 C 173.076 34.100, 174.934 31.294, 174.725 30.658 C 174.517 30.021, 172.978 29.363, 171.305 29.196 C 168.754 28.942, 167.579 29.667, 164.012 33.696 L 159.760 38.500 160.468 35.209 C 161.649 29.725, 158.210 27.278, 154.201 30.750 M 180.476 32.155 C 175.738 36.315, 173 41.888, 173 47.371 C 173 51.081, 173.495 52.239, 175.976 54.326 C 177.613 55.704, 180.313 57.129, 181.976 57.495 C 184.836 58.123, 185 58.423, 185 63.024 C 185 72.208, 178.167 76.091, 174.496 68.993 C 172.367 64.875, 171.166 64.495, 168.426 67.070 C 165.194 70.106, 165.350 71.275, 169.616 75.997 C 172.914 79.647, 173.671 80, 178.212 80 C 181.658 80, 184.094 79.357, 186.123 77.912 C 193.239 72.846, 196.663 57.834, 191.750 53.248 C 190.512 52.093, 188.150 50.828, 186.500 50.436 C 181.727 49.303, 180.765 48.076, 181.505 44.064 C 182.202 40.283, 185.472 36, 187.662 36 C 188.384 36, 190.111 37.800, 191.500 40 C 192.889 42.200, 194.260 44, 194.548 44 C 194.835 44, 196.180 43.273, 197.535 42.385 C 201.013 40.106, 200.605 37.370, 196.118 32.882 C 190.936 27.700, 185.821 27.463, 180.476 32.155 M 316.366 30.919 C 309.611 35.037, 303.821 46.397, 301.903 59.294 C 300.571 68.251, 301.712 73.392, 305.931 77.434 C 308.550 79.943, 309.431 80.211, 313.532 79.749 C 319.182 79.112, 323.497 75.324, 327.433 67.545 C 331.263 59.975, 332.974 52.655, 332.988 43.785 C 332.999 36.573, 332.797 35.839, 329.896 32.535 C 327.407 29.700, 326.071 29.001, 323.146 29.004 C 321.141 29.006, 318.090 29.867, 316.366 30.919 M 341.955 30.554 C 340.887 31.841, 341.146 33.987, 343.457 43.008 C 344.993 49.003, 346.021 54.491, 345.741 55.204 C 345.462 55.917, 341.554 61.146, 337.057 66.825 C 330.297 75.360, 329.091 77.405, 330.102 78.623 C 332.357 81.340, 335.405 79.552, 341.969 71.665 L 348.490 63.830 349.843 70.665 C 351.324 78.153, 352.345 80, 355 80 C 358.916 80, 359.270 77.683, 357.055 66.543 L 354.954 55.977 358.804 50.739 C 369.083 36.753, 371.850 30.647, 368.492 29.359 C 365.930 28.376, 362.508 31.529, 358.120 38.915 C 355.805 42.812, 353.580 46, 353.177 46 C 352.773 46, 351.644 42.898, 350.667 39.106 C 348.365 30.172, 345.008 26.876, 341.955 30.554 M 57.657 33.962 C 55.294 36.140, 52.144 40.157, 50.658 42.887 C 47.228 49.190, 44 61.721, 44 68.737 C 44 73.391, 44.412 74.566, 46.923 77.077 C 50.858 81.012, 55.265 80.986, 60.690 76.996 C 62.937 75.344, 65.546 72.815, 66.489 71.376 C 68.131 68.870, 68.117 68.673, 66.151 66.707 L 64.099 64.654 59.499 68.894 C 56.970 71.226, 54.360 72.956, 53.700 72.740 C 53.040 72.523, 52.363 70.970, 52.195 69.289 C 51.922 66.542, 52.352 66.008, 56.426 64.036 C 62.417 61.136, 70.617 53.670, 73.050 48.902 C 75.933 43.251, 75.698 35.607, 72.545 32.455 C 68.554 28.463, 63.014 29.024, 57.657 33.962 M 214.350 31.928 C 206.374 36.791, 199.069 53.844, 198.869 68.064 C 198.793 73.441, 199.114 74.510, 201.578 77.082 C 203.747 79.345, 205.264 80, 208.339 80 C 211.820 80, 212.987 79.317, 217.897 74.407 L 223.490 68.815 221.141 66.913 L 218.793 65.012 214.226 69.032 C 211.714 71.244, 209.173 72.894, 208.579 72.699 C 207.986 72.505, 207.361 70.939, 207.190 69.220 C 206.906 66.351, 207.309 65.877, 212.107 63.446 C 222.522 58.168, 230 48.196, 230 39.584 C 230 36.207, 227.582 31.437, 225.455 30.621 C 222.376 29.440, 217.488 30.015, 214.350 31.928 M 246.584 38.907 C 242.221 43.728, 235.536 66.936, 237.845 69.245 C 239.164 70.564, 242.976 67.409, 245.974 62.517 C 247.727 59.656, 255 39.823, 255 37.903 C 255 36.168, 248.344 36.962, 246.584 38.907 M 318.243 38.250 C 316.138 40.879, 313.221 47.714, 312.009 52.861 C 310.669 58.553, 310.195 70.528, 311.267 71.600 C 311.619 71.952, 312.974 71.972, 314.279 71.645 C 315.885 71.242, 317.481 69.346, 319.221 65.775 C 322.931 58.160, 323.988 53.502, 323.994 44.750 C 324 37.255, 323.922 37, 321.622 37 C 320.315 37, 318.794 37.563, 318.243 38.250 M 61.115 40.107 C 59.335 42.018, 54 54.746, 54 57.083 C 54 58.540, 59.135 55.564, 62.186 52.339 C 67.096 47.150, 68.916 38, 65.039 38 C 63.960 38, 62.195 38.948, 61.115 40.107 M 215.018 41.184 C 212.342 45.547, 208.835 54.931, 209.206 56.732 C 209.423 57.781, 210.642 57.327, 213.837 55.009 C 220.982 49.823, 224.505 38.927, 219.276 38.184 C 217.652 37.953, 216.502 38.763, 215.018 41.184 M 288.826 40.922 C 287.502 41.964, 285.208 45.040, 283.729 47.757 C 280.524 53.645, 274.762 70.806, 275.558 72.094 C 276.308 73.308, 279.679 73.242, 282.062 71.967 C 287.169 69.234, 295.690 41.781, 292.118 39.573 C 291.632 39.273, 290.151 39.880, 288.826 40.922" stroke="none" fill="#fffcfc" fill-rule="evenodd"/><path d="M 93.405 74.250 L 91.500 76.500 93.750 74.595 C 94.987 73.547, 96 72.535, 96 72.345 C 96 71.545, 95.195 72.136, 93.405 74.250" stroke="none" fill="#fcfcfc" fill-rule="evenodd"/></svg>