<svg xmlns="http://www.w3.org/2000/svg" width="370" height="80" viewBox="0 0 370 80" version="1.1"><path d="" stroke="none" fill="#080404" fill-rule="evenodd"/><path d="M 264.777 6.250 C 263.894 6.938, 261.983 12, 260.530 17.500 C 259.076 23, 257.682 28.212, 257.430 29.081 C 257.062 30.352, 255.888 30.572, 251.437 30.203 C 245.964 29.749, 245.854 29.794, 241.593 34.242 C 236.837 39.205, 231.668 51.531, 229.732 62.526 C 228.418 69.984, 229.240 73.488, 233.163 77.152 C 237.014 80.750, 238.111 80.720, 242.465 76.896 C 244.712 74.924, 246 74.308, 246 75.205 C 246 75.982, 246.615 77.458, 247.366 78.486 C 248.608 80.184, 249.039 80.228, 252.116 78.964 C 256.133 77.314, 265 69.316, 265 67.342 C 265 66.580, 263.847 65.432, 262.438 64.790 C 260.135 63.741, 259.633 63.920, 257.474 66.561 C 256.153 68.178, 255.056 69.148, 255.036 68.717 C 255.016 68.287, 258.825 54.728, 263.500 38.587 C 268.175 22.445, 272 8.558, 272 7.726 C 272 5.071, 267.478 4.147, 264.777 6.250 M 284.774 6.250 C 283.110 7.543, 266 71.653, 266 76.594 C 266 78.928, 266.329 79.131, 269.750 78.905 C 271.813 78.768, 274.552 79.002, 275.837 79.423 C 279.372 80.583, 284.568 79.234, 288.137 76.231 C 293.689 71.559, 301 51.993, 301 41.805 C 301 37.934, 300.433 36.424, 297.896 33.535 C 293.994 29.090, 291.715 29.085, 287.289 33.511 C 285.357 35.443, 283.987 36.455, 284.242 35.761 C 284.498 35.068, 286.224 28.289, 288.079 20.698 C 290.984 8.806, 291.246 6.767, 289.975 5.964 C 287.974 4.698, 286.679 4.769, 284.774 6.250 M 10.958 11.078 C 9.509 13.786, 10.414 16, 12.969 16 C 14.086 16, 15 16.236, 15 16.525 C 15 16.814, 11.625 30.527, 7.500 47 C 3.375 63.473, 0 77.411, 0 77.975 C 0 78.539, 1.787 79, 3.972 79 C 8.472 79, 8.177 79.634, 13.269 59 C 15.424 50.264, 15.820 49.475, 18.185 49.195 C 21.106 48.849, 21.063 48.706, 23.012 65 C 24.538 77.758, 25.107 79, 29.420 79 C 31.324 79, 33.138 78.586, 33.450 78.080 C 33.928 77.307, 31.034 56.302, 29.494 49.367 C 29.133 47.739, 29.701 46.952, 31.893 46.044 C 38.155 43.450, 43.287 35.004, 44.375 25.500 C 45.129 18.921, 43.357 14.146, 39.102 11.285 C 36.040 9.226, 34.537 9, 23.887 9 C 12.946 9, 11.988 9.154, 10.958 11.078 M 23.130 19.624 C 20.640 29.126, 18 39.894, 18 40.544 C 18 40.935, 20.265 41.037, 23.033 40.771 C 29.350 40.164, 32.516 37.368, 34.518 30.627 C 37.455 20.736, 36.108 17.365, 28.822 16.380 L 24.145 15.748 23.130 19.624 M 90.500 30.837 C 77.081 39.021, 67.880 69.228, 76.517 76.743 C 81.896 81.423, 86.522 80.980, 92.800 75.185 C 97.649 70.708, 98.307 67.366, 94.525 66.417 C 92.605 65.935, 91.344 66.502, 88.899 68.947 C 85.545 72.301, 83.380 72.556, 81.645 69.802 C 78.646 65.040, 87.299 41.251, 93.205 38.020 C 95.757 36.624, 96.074 36.697, 98.792 39.301 C 101.848 42.229, 103.794 42.161, 105.729 39.062 C 106.706 37.498, 106.540 36.685, 104.790 34.460 C 102.753 31.870, 97.480 28.996, 94.782 29.004 C 94.077 29.006, 92.150 29.831, 90.500 30.837 M 167.500 30.194 C 165.710 31.251, 164.439 32.614, 160.282 37.940 C 159.304 39.193, 159.255 38.812, 160.032 36.007 C 161.575 30.437, 161.358 30, 157.039 30 C 153.303 30, 153.021 30.214, 152.088 33.750 C 143.808 65.147, 141 76.222, 141 77.483 C 141 78.584, 142.087 79, 144.961 79 C 148.824 79, 148.957 78.882, 150.320 74.250 C 151.089 71.638, 152.769 65.116, 154.054 59.759 L 156.389 50.017 158.445 51.929 C 159.858 53.243, 161.364 53.671, 163.265 53.300 C 166.898 52.592, 167.576 51.294, 165.508 49.009 C 163.231 46.493, 164.076 44.367, 170.075 37.512 C 172.834 34.358, 174.925 31.265, 174.719 30.639 C 174.197 29.045, 169.895 28.780, 167.500 30.194 M 180.378 32.241 C 175.846 36.220, 173.051 42.113, 173.022 47.750 C 172.995 52.872, 175.176 55.432, 180.872 56.965 C 184.068 57.826, 184.973 58.602, 185.481 60.915 C 186.182 64.105, 184.234 69.733, 181.703 71.833 C 179.377 73.762, 176.567 72.468, 174.419 68.479 C 172.213 64.382, 171.115 64.184, 168.146 67.345 C 165.526 70.133, 165.989 72.115, 170.341 76.750 C 173.020 79.604, 174.022 80, 178.561 80 C 185.029 80, 188.342 77.609, 191.616 70.579 C 194.832 63.671, 194.869 56.165, 191.702 53.190 C 190.438 52.002, 187.973 50.745, 186.224 50.395 C 181.961 49.542, 180.610 47.698, 181.391 43.796 C 182.086 40.318, 185.560 36, 187.662 36 C 188.384 36, 190.115 37.807, 191.509 40.014 C 194.037 44.019, 194.051 44.025, 197.022 42.489 C 201.091 40.385, 200.828 37.593, 196.118 32.882 C 190.900 27.664, 185.826 27.458, 180.378 32.241 M 315.935 31.265 C 309.016 35.928, 303.921 46.453, 301.989 60.078 C 300.766 68.698, 301.942 74.113, 305.818 77.712 C 309.708 81.323, 316.777 80.578, 321.431 76.067 C 332.906 64.945, 337.224 34.937, 328.055 30.030 C 324.855 28.317, 319.500 28.863, 315.935 31.265 M 60.287 31.630 C 52.201 35.617, 44.055 54.237, 44.015 68.827 C 44.002 73.392, 44.418 74.572, 46.923 77.077 C 50.838 80.992, 55.333 80.990, 60.744 77.071 C 64.861 74.088, 68 70.388, 68 68.518 C 68 67.948, 67.065 66.897, 65.923 66.184 C 64.058 65.019, 63.391 65.307, 59.373 69.010 C 54.330 73.659, 52.637 73.725, 52.195 69.289 C 51.922 66.542, 52.352 66.008, 56.426 64.036 C 62.694 61.002, 70.939 53.344, 73.129 48.521 C 78.879 35.865, 71.468 26.117, 60.287 31.630 M 112.121 33.250 C 107.672 47.233, 101.910 71.504, 102.490 73.816 C 103.467 77.710, 104.877 79, 108.158 79 C 112.734 79, 115.712 76.342, 121.206 67.351 C 124.013 62.758, 126.412 59, 126.538 59 C 126.664 59, 125.695 62.689, 124.384 67.199 C 121.152 78.314, 121.214 79, 125.441 79 C 127.334 79, 129.119 78.616, 129.409 78.147 C 130.285 76.730, 142 33.394, 142 31.572 C 142 30.231, 141.232 29.944, 138.301 30.190 C 134.632 30.498, 134.517 30.646, 123.944 48.807 C 118.083 58.876, 112.772 67.628, 112.143 68.257 C 110.144 70.256, 110.784 67.079, 116 49.099 C 118.750 39.620, 121 31.445, 121 30.932 C 121 30.420, 119.235 30, 117.078 30 C 113.531 30, 113.056 30.311, 112.121 33.250 M 214.284 31.969 C 206.745 36.565, 200.002 51.819, 199.237 66.003 C 198.794 74.223, 198.871 74.598, 201.526 77.253 C 206.670 82.398, 214.406 80.110, 221.238 71.425 L 223.368 68.717 221.081 66.864 C 218.810 65.026, 218.759 65.042, 214.256 69.006 C 209.036 73.601, 208.471 73.749, 206.958 70.922 C 205.290 67.806, 206.271 66.506, 212.995 62.922 C 220.586 58.876, 227.285 51.627, 228.959 45.647 C 230.564 39.914, 229.533 33.487, 226.689 31.494 C 223.726 29.420, 218.112 29.634, 214.284 31.969 M 341 31.757 C 341 32.723, 342.119 37.561, 343.488 42.507 C 344.856 47.453, 345.981 52.346, 345.988 53.380 C 345.994 54.414, 342.175 60.118, 337.500 66.057 C 332.825 71.995, 329 77.337, 329 77.927 C 329 78.517, 330.693 79, 332.763 79 C 336.264 79, 336.943 78.468, 342.513 71.348 L 348.500 63.696 349.363 68.098 C 351.438 78.684, 351.984 80.001, 354.289 79.985 C 359.162 79.951, 359.360 79.077, 357.128 67.453 L 355.054 56.649 362.527 45.427 C 370.995 32.712, 371.735 30, 366.739 30 C 363.730 30, 363.110 30.616, 358.685 38 C 354.132 45.597, 352 47.704, 352 44.605 C 352 43.838, 351.082 40.238, 349.960 36.605 C 347.960 30.131, 347.851 30, 344.460 30 C 341.826 30, 341 30.420, 341 31.757 M 249.219 37.115 C 246.187 38.236, 243.430 43.050, 240.438 52.448 C 237.234 62.511, 236.365 68.490, 237.963 69.477 C 239.742 70.576, 244.685 65.360, 247.496 59.416 C 249.772 54.605, 255 39.677, 255 37.989 C 255 36.753, 251.590 36.237, 249.219 37.115 M 317.575 39.250 C 314.430 44.059, 311.990 51.019, 310.999 58.005 C 309.131 71.175, 311.954 75.861, 317.429 68.681 C 320.667 64.436, 322.911 58.181, 324.096 50.100 C 325.384 41.318, 324.499 37, 321.412 37 C 320.061 37, 318.415 37.965, 317.575 39.250 M 60.682 40.967 C 58.358 43.727, 53.302 56.635, 54.194 57.527 C 54.413 57.746, 55.982 57.081, 57.680 56.048 C 62.458 53.143, 66.180 47.582, 66.754 42.494 C 67.207 38.471, 67.046 38, 65.219 38 C 64.096 38, 62.054 39.335, 60.682 40.967 M 215.233 40.695 C 212.822 44.107, 207.715 58, 208.871 58 C 209.327 58, 211.607 56.619, 213.937 54.931 C 218.457 51.656, 222.367 44.598, 221.814 40.710 C 221.332 37.321, 217.623 37.313, 215.233 40.695 M 288.791 40.950 C 287.446 42.007, 284.964 45.489, 283.274 48.686 C 279.778 55.299, 274.695 70.697, 275.550 72.081 C 276.523 73.655, 281.610 73.088, 283.305 71.216 C 287.061 67.065, 293 49.882, 293 43.165 C 293 39.204, 291.808 38.577, 288.791 40.950" stroke="none" fill="#040404" fill-rule="evenodd"/></svg>